<svg width="1448" height="1024" viewBox="0 0 1448 1024" fill="none" xmlns="http://www.w3.org/2000/svg">
<g opacity="0.3">
<rect opacity="0.5" x="587.087" y="16.8021" width="17.8813" height="27.5795" rx="3.5" transform="rotate(-55.3815 587.087 16.8021)" stroke="#00D9B9" stroke-opacity="0.5" stroke-width="3"/>
<rect opacity="0.5" x="396.745" y="368.98" width="43.1304" height="43.0669" rx="11" transform="rotate(-31.034 396.745 368.98)" stroke="#3368F7" stroke-opacity="0.5" stroke-width="4"/>
<rect opacity="0.5" x="2.78956" y="599.175" width="38.558" height="38.558" rx="19.279" transform="rotate(-35.4905 2.78956 599.175)" stroke="#FFCE41" stroke-opacity="0.5" stroke-width="4"/>
<rect opacity="0.5" x="246.79" y="719.913" width="22.6042" height="22.6042" rx="11.3021" transform="rotate(-35.4905 246.79 719.913)" stroke="#3368F7" stroke-opacity="0.5" stroke-width="4"/>
<rect opacity="0.5" x="333.939" y="166.652" width="27" height="27" rx="5.5" transform="rotate(-21.0839 333.939 166.652)" stroke="#FF3A2D" stroke-width="3"/>
<rect opacity="0.5" x="902.828" y="123.1" width="26" height="26" rx="5" transform="rotate(-44.6487 902.828 123.1)" stroke="#3368F7" stroke-opacity="0.5" stroke-width="4"/>
<rect opacity="0.5" x="1124.82" y="704.098" width="32.4363" height="56.2134" rx="5" transform="rotate(-48.4507 1124.82 704.098)" stroke="#00D9B9" stroke-opacity="0.5" stroke-width="4"/>
<line opacity="0.5" x1="100.201" y1="536.987" x2="190.221" y2="506.631" stroke="#FF554A" stroke-width="5"/>
<line opacity="0.5" x1="1287.66" y1="791.588" x2="1331.66" y2="803.588" stroke="#FFCE41" stroke-opacity="0.5" stroke-width="5"/>
<path opacity="0.5" d="M1391 396.5L1424.53 342.759C1424.82 342.287 1425.34 342 1425.9 342C1426.56 342 1427.16 342.409 1427.4 343.03L1442.05 380.85C1442.35 381.614 1442.55 382.411 1442.65 383.223L1442.84 384.76C1442.95 385.583 1442.95 386.417 1442.84 387.24L1442.71 388.292C1442.57 389.413 1442.16 390.481 1441.5 391.401C1440.53 392.753 1439.11 393.705 1437.49 394.076L1393.4 404.178C1392.51 404.384 1391.57 404.211 1390.8 403.7C1389.7 402.97 1389.14 401.664 1389.36 400.365L1389.41 400.066C1389.47 399.691 1389.59 399.327 1389.76 398.987L1391 396.5Z" stroke="#FFCE41" stroke-opacity="0.5" stroke-width="4"/>
<path d="M553 740.858L563.88 753.085C564.736 754.047 565.768 754.836 566.92 755.411V755.411C567.715 755.808 568.559 756.099 569.429 756.275L570.064 756.404C570.76 756.545 571.465 756.637 572.174 756.678L573.695 756.767L576.509 756.715L577.663 756.553C579.043 756.36 580.334 755.762 581.375 754.836V754.836L583.428 753.01C584.908 751.692 585.921 749.93 586.315 747.988V747.988L586.459 747.144C586.799 745.146 586.886 743.113 586.717 741.093V741.093V741.093C586.284 738.804 585.238 736.676 583.689 734.935L582.403 733.49L573.068 723" stroke="#7DDBF9" stroke-width="6"/>
<path d="M565.53 752.183L582.861 736.76" stroke="#FDCA45" stroke-width="4"/>
<path d="M562.283 748.534L579.614 733.111" stroke="#FDCA45" stroke-width="4"/>
<path d="M559.036 744.885L576.367 729.463" stroke="#FDCA45" stroke-width="4"/>
<path d="M580.75 769.286L598.081 753.863" stroke="#FDCA45" stroke-width="4"/>
<path d="M587.04 776.356L604.372 760.933" stroke="#FDCA45" stroke-width="3"/>
<path d="M583.996 772.935L601.328 757.512" stroke="#FDCA45" stroke-width="4"/>
<path d="M591.557 784.186L581.261 772.616C580.025 771.227 579.129 769.569 578.645 767.774V767.774C578.425 766.96 578.292 766.125 578.248 765.283L578.109 762.646L578.344 758.616C578.355 758.429 578.379 758.244 578.416 758.061V758.061C578.577 757.267 578.98 756.541 579.568 755.983L582.921 752.807C584.752 751.071 587.142 750.046 589.662 749.913V749.913V749.913C591.384 750.014 593.096 750.236 594.787 750.579L595.24 750.671L597.472 751.369C598.235 751.607 598.918 752.049 599.449 752.646V752.646L611.625 766.328" stroke="#7DDBF9" stroke-width="6"/>
<g filter="url(#filter0_d)">
<path d="M1253.74 211.302L1260.82 190.075M1260.82 190.075L1252.67 180.992L1256.54 169.315L1268.56 166.721L1276.72 175.804L1273.1 187.764L1260.82 190.075Z" stroke="#B6B6B7" stroke-width="3"/>
<path d="M1258.58 171.586L1267.31 169.895L1273.68 176.991" stroke="#B6B6B7" stroke-width="3"/>
</g>
<g filter="url(#filter1_d)">
<path d="M1294.95 128.28L1287.8 149.643M1287.8 149.643L1296.01 158.839L1292.11 170.59L1279.99 173.145L1271.78 163.949L1275.43 151.91L1287.8 149.643Z" stroke="#B6B6B7" stroke-width="3"/>
<path d="M1290.06 168.291L1281.25 169.952L1274.84 162.767" stroke="#B6B6B7" stroke-width="3"/>
</g>
<g filter="url(#filter2_d)">
<path d="M1236.14 127.652L1251.32 144.302M1251.32 144.302L1263.35 141.611L1271.71 150.745L1268.04 162.571L1256 165.263L1247.27 156.212L1251.32 144.302Z" stroke="#56AED1" stroke-width="3"/>
<path d="M1268.7 151.418L1265.86 159.913L1256.46 162.016" stroke="#56AED1" stroke-width="3"/>
</g>
<g opacity="0.5">
<path d="M174.706 262.471L172.39 263.845L167.923 256.321L160.387 260.794L164.854 268.319L162.537 269.693L152.67 253.069L154.986 251.694L159.145 258.702L166.681 254.228L162.522 247.221L164.838 245.847L174.706 262.471ZM188.276 254.829C187.367 255.369 186.489 255.747 185.642 255.963C184.798 256.167 183.988 256.24 183.212 256.182C182.435 256.123 181.693 255.944 180.984 255.643C180.284 255.338 179.62 254.943 178.992 254.457C178.373 253.966 177.792 253.399 177.251 252.756C176.718 252.108 176.228 251.407 175.782 250.655C175.326 249.887 174.94 249.103 174.625 248.305C174.318 247.501 174.099 246.704 173.968 245.912C173.845 245.116 173.822 244.335 173.897 243.57C173.976 242.792 174.176 242.048 174.496 241.338C174.812 240.62 175.26 239.946 175.84 239.316C176.423 238.673 177.153 238.091 178.031 237.57C178.909 237.049 179.766 236.689 180.602 236.49C181.44 236.278 182.25 236.205 183.032 236.272C183.808 236.33 184.553 236.513 185.266 236.821C185.982 237.117 186.656 237.512 187.289 238.006C187.921 238.5 188.512 239.076 189.062 239.735C189.62 240.39 190.127 241.101 190.583 241.869C191.03 242.621 191.406 243.389 191.712 244.172C192.026 244.951 192.249 245.729 192.383 246.508C192.517 247.287 192.546 248.06 192.471 248.825C192.403 249.586 192.209 250.322 191.888 251.031C191.568 251.741 191.112 252.42 190.521 253.067C189.933 253.702 189.185 254.289 188.276 254.829ZM187.054 252.772C188.026 252.195 188.725 251.542 189.151 250.812C189.584 250.078 189.81 249.297 189.828 248.471C189.846 247.644 189.694 246.79 189.373 245.91C189.06 245.026 188.641 244.14 188.115 243.255C187.571 242.338 186.979 241.528 186.34 240.827C185.708 240.12 185.024 239.583 184.286 239.215C183.549 238.848 182.762 238.684 181.927 238.724C181.088 238.756 180.194 239.053 179.246 239.616C178.297 240.179 177.608 240.821 177.178 241.543C176.743 242.257 176.51 243.025 176.48 243.849C176.449 244.673 176.589 245.533 176.899 246.43C177.209 247.327 177.636 248.235 178.18 249.152C178.706 250.037 179.278 250.832 179.897 251.535C180.524 252.234 181.204 252.773 181.939 253.153C182.673 253.533 183.463 253.711 184.307 253.687C185.159 253.658 186.075 253.353 187.054 252.772Z" fill="#00D9B9"/>
<path d="M175.534 260.35C175.46 259.811 175.509 259.354 175.681 258.98C175.852 258.606 176.163 258.285 176.614 258.017C176.838 257.884 177.068 257.791 177.305 257.737C177.541 257.681 177.771 257.675 177.998 257.718C178.224 257.762 178.441 257.858 178.647 258.008C178.852 258.156 179.036 258.366 179.199 258.641C179.298 258.809 179.372 258.996 179.419 259.203C179.469 259.408 179.49 259.649 179.484 259.925C179.479 260.197 179.445 260.514 179.384 260.876C179.325 261.236 179.24 261.656 179.127 262.136L178.736 263.764L181.453 262.152L181.877 262.866L178.228 265.031L177.794 264.301L178.341 261.932C178.405 261.656 178.46 261.383 178.508 261.112C178.555 260.841 178.586 260.585 178.601 260.341C178.616 260.098 178.607 259.874 178.577 259.669C178.548 259.462 178.49 259.283 178.4 259.132C178.338 259.028 178.261 258.932 178.167 258.844C178.071 258.754 177.963 258.685 177.841 258.64C177.718 258.592 177.582 258.574 177.434 258.586C177.286 258.598 177.128 258.654 176.961 258.754C176.787 258.857 176.656 258.971 176.567 259.096C176.477 259.217 176.414 259.342 176.379 259.468C176.345 259.595 176.33 259.719 176.334 259.841C176.338 259.964 176.349 260.077 176.365 260.181L175.534 260.35Z" fill="#00D9B9"/>
</g>
</g>
<defs>
<filter id="filter0_d" x="1228.41" y="152.892" width="61.685" height="60.8754" filterUnits="userSpaceOnUse" color-interpolation-filters="sRGB">
<feFlood flood-opacity="0" result="BackgroundImageFix"/>
<feColorMatrix in="SourceAlpha" type="matrix" values="0 0 0 0 0 0 0 0 0 0 0 0 0 0 0 0 0 0 127 0" result="hardAlpha"/>
<feOffset dy="-3"/>
<feGaussianBlur stdDeviation="2"/>
<feComposite in2="hardAlpha" operator="out"/>
<feColorMatrix type="matrix" values="0 0 0 0 1 0 0 0 0 1 0 0 0 0 1 0 0 0 0.5 0"/>
<feBlend mode="normal" in2="BackgroundImageFix" result="effect1_dropShadow"/>
<feBlend mode="normal" in="SourceGraphic" in2="effect1_dropShadow" result="shape"/>
</filter>
<filter id="filter1_d" x="1258.35" y="119.813" width="62.0644" height="61.2195" filterUnits="userSpaceOnUse" color-interpolation-filters="sRGB">
<feFlood flood-opacity="0" result="BackgroundImageFix"/>
<feColorMatrix in="SourceAlpha" type="matrix" values="0 0 0 0 0 0 0 0 0 0 0 0 0 0 0 0 0 0 127 0" result="hardAlpha"/>
<feOffset dy="-3"/>
<feGaussianBlur stdDeviation="2"/>
<feComposite in2="hardAlpha" operator="out"/>
<feColorMatrix type="matrix" values="0 0 0 0 1 0 0 0 0 1 0 0 0 0 1 0 0 0 0.5 0"/>
<feBlend mode="normal" in2="BackgroundImageFix" result="effect1_dropShadow"/>
<feBlend mode="normal" in="SourceGraphic" in2="effect1_dropShadow" result="shape"/>
</filter>
<filter id="filter2_d" x="1230.71" y="113.072" width="49.3588" height="57.3777" filterUnits="userSpaceOnUse" color-interpolation-filters="sRGB">
<feFlood flood-opacity="0" result="BackgroundImageFix"/>
<feColorMatrix in="SourceAlpha" type="matrix" values="0 0 0 0 0 0 0 0 0 0 0 0 0 0 0 0 0 0 127 0" result="hardAlpha"/>
<feOffset dy="-3"/>
<feGaussianBlur stdDeviation="2"/>
<feComposite in2="hardAlpha" operator="out"/>
<feColorMatrix type="matrix" values="0 0 0 0 1 0 0 0 0 1 0 0 0 0 1 0 0 0 0.25 0"/>
<feBlend mode="normal" in2="BackgroundImageFix" result="effect1_dropShadow"/>
<feBlend mode="normal" in="SourceGraphic" in2="effect1_dropShadow" result="shape"/>
</filter>
</defs>
</svg>
