<svg width="1448" height="1024" viewBox="0 0 1448 1024" fill="none" xmlns="http://www.w3.org/2000/svg">
<rect opacity="0.5" x="108.087" y="228.834" width="15.4894" height="24.0767" rx="3.5" transform="rotate(-55.3815 108.087 228.834)" stroke="#00D9B9" stroke-opacity="0.5" stroke-width="3"/>
<rect opacity="0.5" x="338.745" y="391.981" width="43.1304" height="43.0669" rx="11" transform="rotate(-31.034 338.745 391.981)" stroke="#3368F7" stroke-opacity="0.5" stroke-width="4"/>
<rect opacity="0.5" x="2.78956" y="599.175" width="38.558" height="38.558" rx="19.279" transform="rotate(-35.4905 2.78956 599.175)" stroke="#FFCE41" stroke-opacity="0.5" stroke-width="4"/>
<rect opacity="0.5" x="246.79" y="719.913" width="22.6042" height="22.6042" rx="11.3021" transform="rotate(-35.4905 246.79 719.913)" stroke="#3368F7" stroke-opacity="0.5" stroke-width="4"/>
<rect opacity="0.5" x="333.939" y="166.652" width="27" height="27" rx="5.5" transform="rotate(-21.0839 333.939 166.652)" stroke="#FF3A2D" stroke-width="3"/>
<rect opacity="0.5" x="1070.83" y="314.1" width="26" height="26" rx="5" transform="rotate(-44.6487 1070.83 314.1)" stroke="#3368F7" stroke-opacity="0.5" stroke-width="4"/>
<rect opacity="0.5" x="1304.33" y="688.717" width="32.4363" height="56.2134" rx="5" transform="rotate(-48.4507 1304.33 688.717)" stroke="#00D9B9" stroke-opacity="0.5" stroke-width="4"/>
<line opacity="0.5" x1="100.201" y1="536.987" x2="190.221" y2="506.631" stroke="#FF554A" stroke-width="5"/>
<line opacity="0.5" x1="1153.43" y1="234.92" x2="1288.43" y2="203.565" stroke="#00D9B9" stroke-opacity="0.5" stroke-width="5"/>
<line opacity="0.5" x1="999.658" y1="499.588" x2="1043.66" y2="511.588" stroke="#FFCE41" stroke-opacity="0.5" stroke-width="5"/>
<path opacity="0.5" d="M1306 465L1339.53 411.259C1339.82 410.787 1340.34 410.5 1340.9 410.5C1341.56 410.5 1342.16 410.909 1342.4 411.53L1357.05 449.35C1357.35 450.114 1357.55 450.911 1357.65 451.723L1357.84 453.26C1357.95 454.083 1357.95 454.917 1357.84 455.74L1357.71 456.792C1357.57 457.913 1357.16 458.981 1356.5 459.901C1355.53 461.253 1354.11 462.205 1352.49 462.576L1308.4 472.678C1307.51 472.884 1306.57 472.711 1305.8 472.2C1304.7 471.47 1304.14 470.164 1304.36 468.865L1304.41 468.566C1304.47 468.191 1304.59 467.827 1304.76 467.487L1306 465Z" stroke="#FFCE41" stroke-opacity="0.5" stroke-width="4"/>
</svg>
